<svg xmlns="http://www.w3.org/2000/svg" width="16" height="16" viewBox="0 0 16 16">
<path d="M6.5 1L6.2 2.8C5.7 3 5.3 3.3 4.9 3.6L3.2 3L2 5L3.4 6.2C3.4 6.5 3.3 6.7 3.3 7C3.3 7.3 3.4 7.5 3.4 7.8L2 9L3.2 11L4.9 10.4C5.3 10.7 5.7 11 6.2 11.2L6.5 13H9.5L9.8 11.2C10.3 11 10.7 10.7 11.1 10.4L12.8 11L14 9L12.6 7.8C12.6 7.5 12.7 7.3 12.7 7C12.7 6.7 12.6 6.5 12.6 6.2L14 5L12.8 3L11.1 3.6C10.7 3.3 10.3 3 9.8 2.8L9.5 1H6.5ZM8 5C9.1 5 10 5.9 10 7C10 8.1 9.1 9 8 9C6.9 9 6 8.1 6 7C6 5.9 6.9 5 8 5Z" fill="#e0e0e0"/>
</svg>
